<svg xmlns="http://www.w3.org/2000/svg" xmlns:xlink="http://www.w3.org/1999/xlink" viewBox="0 0 512 512"><defs><linearGradient id="linear-gradient" x1="256" y1="15.84" x2="256" y2="605.52" gradientUnits="userSpaceOnUse"><stop offset="0" stop-color="#fa3f04"/><stop offset="0.21" stop-color="#f73d04"/><stop offset="0.38" stop-color="#ec3804"/><stop offset="0.55" stop-color="#db2f03"/><stop offset="0.71" stop-color="#c22203"/><stop offset="0.86" stop-color="#a21203"/><stop offset="1" stop-color="#7e0002"/></linearGradient><radialGradient id="radial-gradient" cx="247.66" cy="268.68" r="283.49" gradientTransform="translate(8.44 -10.35) scale(0.98 0.98)" gradientUnits="userSpaceOnUse"><stop offset="0" stop-color="#fa3f04"/><stop offset="0.32" stop-color="#f83e04"/><stop offset="0.49" stop-color="#f03a04"/><stop offset="0.62" stop-color="#e23304"/><stop offset="0.74" stop-color="#cf2903"/><stop offset="0.84" stop-color="#b61c03"/><stop offset="0.94" stop-color="#980d02"/><stop offset="1" stop-color="#7e0002"/></radialGradient><linearGradient id="linear-gradient-2" x1="22.25" y1="255.34" x2="487.83" y2="255.34" xlink:href="#linear-gradient"/></defs><title>standby-other</title><g style="isolation:isolate"><g id="Layer_1" data-name="Layer 1"><g id="_Group_" data-name="&lt;Group&gt;"><circle id="_Path_" data-name="&lt;Path&gt;" cx="256" cy="256" r="255.02" fill="url(#linear-gradient)"/><path id="_Path_2" data-name="&lt;Path&gt;" d="M488.39,248.39c4.29,134.43-105.57,244.3-240,240-121.74-3.89-220.9-103-224.78-224.78-4.29-134.43,105.57-244.3,240-240C385.35,27.49,484.51,126.65,488.39,248.39Z" fill="url(#radial-gradient)"/></g><path id="_Compound_Path_" data-name="&lt;Compound Path&gt;" d="M255,488.13c-128.36,0-232.79-104.43-232.79-232.79S126.68,22.55,255,22.55,487.83,127,487.83,255.34,383.4,488.13,255,488.13Zm0-463.71C127.71,24.42,24.12,128,24.12,255.34S127.71,486.26,255,486.26,486,382.67,486,255.34,382.37,24.42,255,24.42Z" fill="url(#linear-gradient-2)"/><g style="mix-blend-mode:soft-light"><path d="M308.66,161.07c-7.42-3.65-16,.58-18.67,8.39s1.56,16.22,8.82,20.17a89.81,89.81,0,1,1-85.62,0c7.26-4,11.5-12.36,8.82-20.17s-11.25-12-18.67-8.4a119.74,119.74,0,1,0,105.32,0Z" fill="#fff"/><path d="M256,228.56a15,15,0,0,0,15-15V138.75a15,15,0,0,0-29.94,0v74.84A15,15,0,0,0,256,228.56Z" fill="#fff"/></g><g style="mix-blend-mode:soft-light"><path d="M308.66,161.07c-7.42-3.65-16,.58-18.67,8.39s1.56,16.22,8.82,20.17a89.81,89.81,0,1,1-85.62,0c7.26-4,11.5-12.36,8.82-20.17s-11.25-12-18.67-8.4a119.74,119.74,0,1,0,105.32,0Z" fill="#fff"/><path d="M256,228.56a15,15,0,0,0,15-15V138.75a15,15,0,0,0-29.94,0v74.84A15,15,0,0,0,256,228.56Z" fill="#fff"/></g><path id="_Path_3" data-name="&lt;Path&gt;" d="M324.07,185.7a433.15,433.15,0,0,1,161.21,30.92C466.85,107,371.52,23.48,256.66,23.48c-128,0-231.86,103.81-231.86,231.85A232.93,232.93,0,0,0,29.32,301,432.79,432.79,0,0,1,324.07,185.7Z" fill="#fff" opacity="0.15"/></g></g></svg>